<?xml version="1.0" encoding="utf-8"?>
<!-- Generator: Adobe Illustrator 16.0.0, SVG Export Plug-In . SVG Version: 6.00 Build 0)  -->
<!DOCTYPE svg PUBLIC "-//W3C//DTD SVG 1.1//EN" "http://www.w3.org/Graphics/SVG/1.1/DTD/svg11.dtd">
<svg version="1.1" id="Calque_1" xmlns="http://www.w3.org/2000/svg" xmlns:xlink="http://www.w3.org/1999/xlink" x="0px" y="0px"
	 width="164px" height="34px" viewBox="0 0 164 34" enable-background="new 0 0 164 34" xml:space="preserve">
<path fill="#798994" d="M43.737,23.787h1.39c0.347,0,0.537-0.096,0.537-0.82v-8.875c0-0.758-0.126-0.948-0.537-0.948h-1.39v-2.369
	h2.464c1.547,0,2.968-0.158,3.663-0.316v3.032c0.948-2.021,2.464-3.127,4.801-3.127c2.464,0,4.043,1.137,4.581,3.506
	c0.821-2.274,2.464-3.506,5.054-3.506c3.348,0,5.085,1.864,5.085,6.001v6.602c0,0.727,0.19,0.82,0.537,0.82h1.39v2.369h-7.896
	v-2.369h1.169c0.347,0,0.537-0.096,0.537-0.82v-6.349c0-2.369-0.79-3.412-2.527-3.412c-1.958,0-2.938,1.548-2.938,4.485v5.274
	c0,0.726,0.189,0.82,0.537,0.82h1.327v2.369h-7.833v-2.369h1.168c0.347,0,0.537-0.095,0.537-0.82v-6.633
	c0-2.084-0.884-3.127-2.527-3.127c-1.958,0-2.937,1.548-2.937,4.485v5.274c0,0.726,0.188,0.82,0.537,0.82h1.231v2.369h-7.959
	L43.737,23.787L43.737,23.787z"/>
<path fill="#798994" d="M76.49,19.271c0.095,2.873,1.516,4.77,4.391,4.77c2.18,0,3.442-1.105,4.169-2.971l2.4,1.074
	c-0.853,2.463-2.938,4.422-6.917,4.422c-5.59,0-8.402-3.379-8.402-8.117c0-4.801,3.253-8.085,7.991-8.085
	c4.864,0,7.549,3.032,7.549,8.118v0.789H76.49L76.49,19.271z M76.427,17.123h6.948c-0.062-3.127-1.01-4.327-3.252-4.327
	S76.616,14.091,76.427,17.123z"/>
<path fill="#798994" d="M94.872,13.522c0.979-2.116,2.749-3.158,5.212-3.158c3.253,0,4.99,1.895,4.99,5.749v6.854
	c0,0.727,0.189,0.82,0.537,0.82h1.39v2.369h-7.959v-2.369h1.231c0.348,0,0.537-0.096,0.537-0.82v-6.759
	c0-2.148-0.789-3.064-2.526-3.064c-2.116,0-3.351,1.579-3.351,5.021v4.802c0,0.727,0.19,0.82,0.539,0.82h1.231v2.369h-7.96v-2.369
	h1.39c0.349,0,0.537-0.096,0.537-0.82v-8.875c0-0.758-0.127-0.948-0.537-0.948h-1.39v-2.369h2.463c1.549,0,2.971-0.158,3.664-0.316
	L94.872,13.522L94.872,13.522z"/>
<path fill="#798994" d="M109.4,21.768v-8.624h-2.084v-2.116l1.201-0.095c1.073-0.189,1.769-0.601,1.895-1.738l0.316-2.779h2.937
	v4.358h3.063v2.369h-3.158v8.561c0,1.673,0.601,2.241,1.959,2.241c0.662,0,1.074-0.127,1.453-0.254v2.434
	c-0.602,0.189-1.644,0.41-2.75,0.41C110.76,26.535,109.4,25.209,109.4,21.768z"/>
<path fill="#798994" d="M118.057,23.787h1.42c0.349,0,0.506-0.158,0.506-0.82v-8.56c0-0.98-0.157-1.264-0.694-1.264h-1.231v-2.369
	h2.525c1.548,0,2.97-0.158,3.695-0.316v12.508c0,0.662,0.16,0.82,0.507,0.82h1.325v2.369h-8.053V23.787L118.057,23.787z
	 M119.443,6.763c0-1.421,1.043-2.59,2.654-2.59c1.547,0,2.652,1.169,2.652,2.59c0,1.421-1.105,2.59-2.652,2.59
	C120.486,9.354,119.443,8.185,119.443,6.763z"/>
<path fill="#798994" d="M127.277,18.449c0-4.801,3.315-8.085,8.275-8.085c4.832,0,8.086,3.253,8.086,8.085s-3.285,8.117-8.214,8.117
	C130.531,26.566,127.277,23.314,127.277,18.449z M139.376,18.67v-0.41c0-3.695-1.233-5.369-3.886-5.369
	c-2.686,0-3.917,1.674-3.917,5.369v0.41c0,3.696,1.2,5.371,3.885,5.371S139.376,22.335,139.376,18.67L139.376,18.67z"/>
<path fill="#798994" d="M150.871,13.522c0.979-2.116,2.748-3.158,5.212-3.158c3.253,0,4.989,1.895,4.989,5.749v6.854
	c0,0.727,0.189,0.82,0.537,0.82H163v2.369h-7.96v-2.369h1.231c0.349,0,0.537-0.096,0.537-0.82v-6.759
	c0-2.148-0.789-3.064-2.525-3.064c-2.116,0-3.35,1.579-3.35,5.021v4.802c0,0.727,0.19,0.82,0.537,0.82h1.231v2.369h-7.959v-2.369
	h1.389c0.349,0,0.537-0.096,0.537-0.82v-8.875c0-0.758-0.126-0.948-0.537-0.948h-1.389v-2.369h2.463
	c1.548,0,2.971-0.158,3.664-0.316L150.871,13.522L150.871,13.522z"/>
<path fill-rule="evenodd" clip-rule="evenodd" fill="#36A3DC" d="M18.242,0C8.859,0,1.251,7.608,1.251,16.991
	c0,9.382,7.607,16.99,16.99,16.99s16.99-7.607,16.99-16.99C35.232,7.608,27.625,0,18.242,0z M25.949,28.066l-7.691-5.623
	l-7.842,5.623l2.971-9.041l-7.642-5.528h9.493L18.26,4.46l2.917,8.954h9.58l-7.752,5.666L25.949,28.066z"/>
</svg>
